
<svg class="lds-gear-set" width="127px"  height="127px"  xmlns="http://www.w3.org/2000/svg" xmlns:xlink="http://www.w3.org/1999/xlink" viewBox="0 0 100 100" preserveAspectRatio="xMidYMid" style="background: none;"><g transform="translate(50 50)"> <g transform="translate(-17 -17) scale(0.5)"> <g transform="rotate(130.909)">
<animateTransform attributeName="transform" type="rotate" values="0;360" keyTimes="0;1" dur="3.3s" begin="0s" repeatCount="indefinite"></animateTransform><path d="M37.52332607858744 -6 L44.52332607858744 -6 L44.52332607858744 6 L37.52332607858744 6 A38 38 0 0 1 35.49615361854384 13.565510616587085 L35.49615361854384 13.565510616587085 L41.558331445034916 17.065510616587083 L35.558331445034916 27.457815462000347 L29.496153618543843 23.957815462000347 A38 38 0 0 1 23.95781546200035 29.49615361854384 L23.95781546200035 29.49615361854384 L27.45781546200035 35.55833144503491 L17.065510616587098 41.55833144503491 L13.565510616587096 35.49615361854384 A38 38 0 0 1 6.000000000000006 37.52332607858744 L6.000000000000006 37.52332607858744 L6.000000000000006 44.52332607858744 L-6.000000000000002 44.52332607858744 L-6.000000000000002 37.52332607858744 A38 38 0 0 1 -13.565510616587074 35.49615361854384 L-13.565510616587074 35.49615361854384 L-17.065510616587073 41.558331445034916 L-27.457815462000347 35.558331445034916 L-23.957815462000347 29.496153618543843 A38 38 0 0 1 -29.49615361854383 23.957815462000365 L-29.49615361854383 23.957815462000365 L-35.558331445034895 27.45781546200037 L-41.55833144503491 17.0655106165871 L-35.496153618543836 13.565510616587098 A38 38 0 0 1 -37.52332607858744 6.000000000000009 L-37.52332607858744 6.000000000000009 L-44.52332607858744 6.00000000000001 L-44.52332607858744 -5.999999999999999 L-37.52332607858744 -6 A38 38 0 0 1 -35.49615361854385 -13.565510616587073 L-35.49615361854385 -13.565510616587073 L-41.55833144503492 -17.06551061658707 L-35.558331445034916 -27.45781546200034 L-29.496153618543847 -23.957815462000344 A38 38 0 0 1 -23.957815462000365 -29.496153618543826 L-23.957815462000365 -29.496153618543826 L-27.45781546200037 -35.558331445034895 L-17.0655106165871 -41.55833144503491 L-13.5655106165871 -35.496153618543836 A38 38 0 0 1 -6.0000000000000115 -37.52332607858744 L-6.0000000000000115 -37.52332607858744 L-6.000000000000012 -44.52332607858744 L5.9999999999999964 -44.52332607858744 L5.999999999999997 -37.52332607858744 A38 38 0 0 1 13.565510616587053 -35.49615361854385 L13.565510616587053 -35.49615361854385 L17.065510616587048 -41.55833144503492 L27.457815462000326 -35.55833144503494 L23.95781546200033 -29.49615361854386 A38 38 0 0 1 29.496153618543826 -23.95781546200037 L29.496153618543826 -23.95781546200037 L35.558331445034895 -27.457815462000372 L41.55833144503491 -17.065510616587105 L35.496153618543836 -13.565510616587101 A38 38 0 0 1 37.52332607858743 -6.000000000000013 M0 -18A18 18 0 1 0 0 18 A18 18 0 1 0 0 -18" fill="#a7b2bf"></path></g></g> <g transform="translate(0 22) scale(0.4)"> <g transform="rotate(214.091)">
<animateTransform attributeName="transform" type="rotate" values="360;0" keyTimes="0;1" dur="3.3s" begin="-0.13749999999999998s" repeatCount="indefinite"></animateTransform><path d="M37.52332607858744 -6 L44.52332607858744 -6 L44.52332607858744 6 L37.52332607858744 6 A38 38 0 0 1 35.49615361854384 13.565510616587085 L35.49615361854384 13.565510616587085 L41.558331445034916 17.065510616587083 L35.558331445034916 27.457815462000347 L29.496153618543843 23.957815462000347 A38 38 0 0 1 23.95781546200035 29.49615361854384 L23.95781546200035 29.49615361854384 L27.45781546200035 35.55833144503491 L17.065510616587098 41.55833144503491 L13.565510616587096 35.49615361854384 A38 38 0 0 1 6.000000000000006 37.52332607858744 L6.000000000000006 37.52332607858744 L6.000000000000006 44.52332607858744 L-6.000000000000002 44.52332607858744 L-6.000000000000002 37.52332607858744 A38 38 0 0 1 -13.565510616587074 35.49615361854384 L-13.565510616587074 35.49615361854384 L-17.065510616587073 41.558331445034916 L-27.457815462000347 35.558331445034916 L-23.957815462000347 29.496153618543843 A38 38 0 0 1 -29.49615361854383 23.957815462000365 L-29.49615361854383 23.957815462000365 L-35.558331445034895 27.45781546200037 L-41.55833144503491 17.0655106165871 L-35.496153618543836 13.565510616587098 A38 38 0 0 1 -37.52332607858744 6.000000000000009 L-37.52332607858744 6.000000000000009 L-44.52332607858744 6.00000000000001 L-44.52332607858744 -5.999999999999999 L-37.52332607858744 -6 A38 38 0 0 1 -35.49615361854385 -13.565510616587073 L-35.49615361854385 -13.565510616587073 L-41.55833144503492 -17.06551061658707 L-35.558331445034916 -27.45781546200034 L-29.496153618543847 -23.957815462000344 A38 38 0 0 1 -23.957815462000365 -29.496153618543826 L-23.957815462000365 -29.496153618543826 L-27.45781546200037 -35.558331445034895 L-17.0655106165871 -41.55833144503491 L-13.5655106165871 -35.496153618543836 A38 38 0 0 1 -6.0000000000000115 -37.52332607858744 L-6.0000000000000115 -37.52332607858744 L-6.000000000000012 -44.52332607858744 L5.9999999999999964 -44.52332607858744 L5.999999999999997 -37.52332607858744 A38 38 0 0 1 13.565510616587053 -35.49615361854385 L13.565510616587053 -35.49615361854385 L17.065510616587048 -41.55833144503492 L27.457815462000326 -35.55833144503494 L23.95781546200033 -29.49615361854386 A38 38 0 0 1 29.496153618543826 -23.95781546200037 L29.496153618543826 -23.95781546200037 L35.558331445034895 -27.457815462000372 L41.55833144503491 -17.065510616587105 L35.496153618543836 -13.565510616587101 A38 38 0 0 1 37.52332607858743 -6.000000000000013 M0 -18A18 18 0 1 0 0 18 A18 18 0 1 0 0 -18" fill="#6a6f76"></path></g></g> <g transform="translate(28 4) scale(0.3)"> <g transform="rotate(145.909)">
<animateTransform attributeName="transform" type="rotate" values="0;360" keyTimes="0;1" dur="3.3s" begin="-0.13749999999999998s" repeatCount="indefinite"></animateTransform><path d="M37.52332607858744 -6 L44.52332607858744 -6 L44.52332607858744 6 L37.52332607858744 6 A38 38 0 0 1 35.49615361854384 13.565510616587085 L35.49615361854384 13.565510616587085 L41.558331445034916 17.065510616587083 L35.558331445034916 27.457815462000347 L29.496153618543843 23.957815462000347 A38 38 0 0 1 23.95781546200035 29.49615361854384 L23.95781546200035 29.49615361854384 L27.45781546200035 35.55833144503491 L17.065510616587098 41.55833144503491 L13.565510616587096 35.49615361854384 A38 38 0 0 1 6.000000000000006 37.52332607858744 L6.000000000000006 37.52332607858744 L6.000000000000006 44.52332607858744 L-6.000000000000002 44.52332607858744 L-6.000000000000002 37.52332607858744 A38 38 0 0 1 -13.565510616587074 35.49615361854384 L-13.565510616587074 35.49615361854384 L-17.065510616587073 41.558331445034916 L-27.457815462000347 35.558331445034916 L-23.957815462000347 29.496153618543843 A38 38 0 0 1 -29.49615361854383 23.957815462000365 L-29.49615361854383 23.957815462000365 L-35.558331445034895 27.45781546200037 L-41.55833144503491 17.0655106165871 L-35.496153618543836 13.565510616587098 A38 38 0 0 1 -37.52332607858744 6.000000000000009 L-37.52332607858744 6.000000000000009 L-44.52332607858744 6.00000000000001 L-44.52332607858744 -5.999999999999999 L-37.52332607858744 -6 A38 38 0 0 1 -35.49615361854385 -13.565510616587073 L-35.49615361854385 -13.565510616587073 L-41.55833144503492 -17.06551061658707 L-35.558331445034916 -27.45781546200034 L-29.496153618543847 -23.957815462000344 A38 38 0 0 1 -23.957815462000365 -29.496153618543826 L-23.957815462000365 -29.496153618543826 L-27.45781546200037 -35.558331445034895 L-17.0655106165871 -41.55833144503491 L-13.5655106165871 -35.496153618543836 A38 38 0 0 1 -6.0000000000000115 -37.52332607858744 L-6.0000000000000115 -37.52332607858744 L-6.000000000000012 -44.52332607858744 L5.9999999999999964 -44.52332607858744 L5.999999999999997 -37.52332607858744 A38 38 0 0 1 13.565510616587053 -35.49615361854385 L13.565510616587053 -35.49615361854385 L17.065510616587048 -41.55833144503492 L27.457815462000326 -35.55833144503494 L23.95781546200033 -29.49615361854386 A38 38 0 0 1 29.496153618543826 -23.95781546200037 L29.496153618543826 -23.95781546200037 L35.558331445034895 -27.457815462000372 L41.55833144503491 -17.065510616587105 L35.496153618543836 -13.565510616587101 A38 38 0 0 1 37.52332607858743 -6.000000000000013 M0 -18A18 18 0 1 0 0 18 A18 18 0 1 0 0 -18" fill="#484e54"></path></g></g></g></svg>
